<svg version="1.1" xmlns="http://www.w3.org/2000/svg" xmlns:xlink="http://www.w3.org/1999/xlink" width="2044" height="2308"><defs></defs><g><g transform="translate(-22,10) scale(1,1)"><path fill="none" stroke="#000000" d="M 32 0 L 2056 0 L 2056 2288 L 32 2288 L 32 0" stroke-miterlimit="10"></path></g><g transform="translate(-22,10) scale(1,1)"><path fill="#ffffff" stroke="none" d="M 32 0 L 32 22 L 246 22 L 257 11 L 257 0 L 32 0"></path></g><g transform="translate(-22,10) scale(1,1)"><path fill="none" stroke="#000000" d="M 32 0 L 32 22 L 246 22 L 257 11 L 257 0 L 32 0 L 32 0" stroke-miterlimit="10"></path></g><g transform="translate(-22,10) scale(1,1)"><g><path fill="none" stroke="none"></path><text fill="#000000" stroke="none" font-family="Arial" font-size="13px" font-style="normal" font-weight="normal" text-decoration="none" x="103" y="17.5">AMS  Start Activity(Pie)</text></g></g><g transform="translate(-22,10) scale(1,1)"><g><path fill="none" stroke="none"></path><text fill="#000000" stroke="none" font-family="Arial" font-size="13px" font-style="normal" font-weight="bold" text-decoration="none" x="37" y="17.5">interaction</text></g></g><g transform="translate(-22,10) scale(1,1)"><rect fill="#C0C0C0" stroke="none" x="47" y="47" width="74" height="39" opacity="0.2"></rect></g><g transform="translate(-22,10) scale(1,1)"><rect fill="#ffffff" stroke="none" x="40" y="40" width="74" height="39"></rect></g><g transform="translate(-22,10) scale(1,1)"><path fill="none" stroke="#000000" d="M 40 40 L 114 40 L 114 79 L 40 79 L 40 40 Z Z" stroke-miterlimit="10"></path></g><g transform="translate(-22,10) scale(1,1)"><g><path fill="none" stroke="none"></path><text fill="#000000" stroke="none" font-family="Arial" font-size="13px" font-style="normal" font-weight="bold" text-decoration="none" x="56" y="59.5">Activity</text></g></g><g transform="translate(-22,10) scale(1,1)"><path fill="none" stroke="#000000" d="M 78.5 80 L 78.5 2174" stroke-miterlimit="10" stroke-dasharray="3"></path></g><g transform="translate(-22,10) scale(1,1)"><rect fill="#C0C0C0" stroke="none" x="127" y="47" width="118" height="39" opacity="0.2"></rect></g><g transform="translate(-22,10) scale(1,1)"><rect fill="#ffffff" stroke="none" x="120" y="40" width="118" height="39"></rect></g><g transform="translate(-22,10) scale(1,1)"><path fill="none" stroke="#000000" d="M 120 40 L 238 40 L 238 79 L 120 79 L 120 40 Z Z" stroke-miterlimit="10"></path></g><g transform="translate(-22,10) scale(1,1)"><g><path fill="none" stroke="none"></path><text fill="#000000" stroke="none" font-family="Arial" font-size="13px" font-style="normal" font-weight="bold" text-decoration="none" x="134.5" y="59.5">Instrumentation</text></g></g><g transform="translate(-22,10) scale(1,1)"><path fill="none" stroke="#000000" d="M 180.5 80 L 180.5 2114" stroke-miterlimit="10" stroke-dasharray="3"></path></g><g transform="translate(-22,10) scale(1,1)"><rect fill="#C0C0C0" stroke="none" x="255" y="47" width="169" height="39" opacity="0.2"></rect></g><g transform="translate(-22,10) scale(1,1)"><rect fill="#ffffff" stroke="none" x="248" y="40" width="169" height="39"></rect></g><g transform="translate(-22,10) scale(1,1)"><path fill="none" stroke="#000000" d="M 248 40 L 417 40 L 417 79 L 248 79 L 248 40 Z Z" stroke-miterlimit="10"></path></g><g transform="translate(-22,10) scale(1,1)"><g><path fill="none" stroke="none"></path><text fill="#000000" stroke="none" font-family="Arial" font-size="13px" font-style="normal" font-weight="bold" text-decoration="none" x="265.5" y="59.5">ActivityManagerService</text></g></g><g transform="translate(-22,10) scale(1,1)"><path fill="none" stroke="#000000" d="M 333.5 80 L 333.5 1858" stroke-miterlimit="10" stroke-dasharray="3"></path></g><g transform="translate(-22,10) scale(1,1)"><rect fill="#C0C0C0" stroke="none" x="431" y="47" width="158" height="39" opacity="0.2"></rect></g><g transform="translate(-22,10) scale(1,1)"><rect fill="#ffffff" stroke="none" x="424" y="40" width="158" height="39"></rect></g><g transform="translate(-22,10) scale(1,1)"><path fill="none" stroke="#000000" d="M 424 40 L 582 40 L 582 79 L 424 79 L 424 40 Z Z" stroke-miterlimit="10"></path></g><g transform="translate(-22,10) scale(1,1)"><g><path fill="none" stroke="none"></path><text fill="#000000" stroke="none" font-family="Arial" font-size="13px" font-style="normal" font-weight="bold" text-decoration="none" x="440.5" y="59.5">ActivityStartController</text></g></g><g transform="translate(-22,10) scale(1,1)"><path fill="none" stroke="#000000" d="M 504.5 80 L 504.5 442" stroke-miterlimit="10" stroke-dasharray="3"></path></g><g transform="translate(-22,10) scale(1,1)"><rect fill="#C0C0C0" stroke="none" x="591" y="47" width="108" height="39" opacity="0.2"></rect></g><g transform="translate(-22,10) scale(1,1)"><rect fill="#ffffff" stroke="none" x="584" y="40" width="108" height="39"></rect></g><g transform="translate(-22,10) scale(1,1)"><path fill="none" stroke="#000000" d="M 584 40 L 692 40 L 692 79 L 584 79 L 584 40 Z Z" stroke-miterlimit="10"></path></g><g transform="translate(-22,10) scale(1,1)"><g><path fill="none" stroke="none"></path><text fill="#000000" stroke="none" font-family="Arial" font-size="13px" font-style="normal" font-weight="bold" text-decoration="none" x="597.5" y="59.5">ActivityStarter</text></g></g><g transform="translate(-22,10) scale(1,1)"><path fill="none" stroke="#000000" d="M 639.5 80 L 639.5 746" stroke-miterlimit="10" stroke-dasharray="3"></path></g><g transform="translate(-22,10) scale(1,1)"><rect fill="#C0C0C0" stroke="none" x="703" y="47" width="100" height="39" opacity="0.2"></rect></g><g transform="translate(-22,10) scale(1,1)"><rect fill="#ffffff" stroke="none" x="696" y="40" width="100" height="39"></rect></g><g transform="translate(-22,10) scale(1,1)"><path fill="none" stroke="#000000" d="M 696 40 L 796 40 L 796 79 L 696 79 L 696 40 Z Z" stroke-miterlimit="10"></path></g><g transform="translate(-22,10) scale(1,1)"><g><path fill="none" stroke="none"></path><text fill="#000000" stroke="none" font-family="Arial" font-size="13px" font-style="normal" font-weight="bold" text-decoration="none" x="708" y="59.5">ActivityStack</text></g></g><g transform="translate(-22,10) scale(1,1)"><path fill="none" stroke="#000000" d="M 747.5 80 L 747.5 898" stroke-miterlimit="10" stroke-dasharray="3"></path></g><g transform="translate(-22,10) scale(1,1)"><rect fill="#C0C0C0" stroke="none" x="807" y="47" width="168" height="39" opacity="0.2"></rect></g><g transform="translate(-22,10) scale(1,1)"><rect fill="#ffffff" stroke="none" x="800" y="40" width="168" height="39"></rect></g><g transform="translate(-22,10) scale(1,1)"><path fill="none" stroke="#000000" d="M 800 40 L 968 40 L 968 79 L 800 79 L 800 40 Z Z" stroke-miterlimit="10"></path></g><g transform="translate(-22,10) scale(1,1)"><g><path fill="none" stroke="none"></path><text fill="#000000" stroke="none" font-family="Arial" font-size="13px" font-style="normal" font-weight="bold" text-decoration="none" x="816" y="59.5">ActivityStackSupervisor</text></g></g><g transform="translate(-22,10) scale(1,1)"><path fill="none" stroke="#000000" d="M 885.5 80 L 885.5 1946" stroke-miterlimit="10" stroke-dasharray="3"></path></g><g transform="translate(-22,10) scale(1,1)"><rect fill="#C0C0C0" stroke="none" x="983" y="47" width="74" height="39" opacity="0.2"></rect></g><g transform="translate(-22,10) scale(1,1)"><rect fill="#ffffff" stroke="none" x="976" y="40" width="74" height="39"></rect></g><g transform="translate(-22,10) scale(1,1)"><path fill="none" stroke="#000000" d="M 976 40 L 1050 40 L 1050 79 L 976 79 L 976 40 Z Z" stroke-miterlimit="10"></path></g><g transform="translate(-22,10) scale(1,1)"><g><path fill="none" stroke="none"></path><text fill="#000000" stroke="none" font-family="Arial" font-size="13px" font-style="normal" font-weight="bold" text-decoration="none" x="989" y="59.5">Process</text></g></g><g transform="translate(-22,10) scale(1,1)"><path fill="none" stroke="#000000" d="M 1014.5 80 L 1014.5 1090" stroke-miterlimit="10" stroke-dasharray="3"></path></g><g transform="translate(-22,10) scale(1,1)"><rect fill="#C0C0C0" stroke="none" x="1063" y="47" width="110" height="39" opacity="0.2"></rect></g><g transform="translate(-22,10) scale(1,1)"><rect fill="#ffffff" stroke="none" x="1056" y="40" width="110" height="39"></rect></g><g transform="translate(-22,10) scale(1,1)"><path fill="none" stroke="#000000" d="M 1056 40 L 1166 40 L 1166 79 L 1056 79 L 1056 40 Z Z" stroke-miterlimit="10"></path></g><g transform="translate(-22,10) scale(1,1)"><g><path fill="none" stroke="none"></path><text fill="#000000" stroke="none" font-family="Arial" font-size="13px" font-style="normal" font-weight="bold" text-decoration="none" x="1067.5" y="59.5">ZygoteProcess</text></g></g><g transform="translate(-22,10) scale(1,1)"><path fill="none" stroke="#000000" d="M 1112.5 80 L 1112.5 1242" stroke-miterlimit="10" stroke-dasharray="3"></path></g><g transform="translate(-22,10) scale(1,1)"><rect fill="#C0C0C0" stroke="none" x="1183" y="47" width="103" height="39" opacity="0.2"></rect></g><g transform="translate(-22,10) scale(1,1)"><rect fill="#ffffff" stroke="none" x="1176" y="40" width="103" height="39"></rect></g><g transform="translate(-22,10) scale(1,1)"><path fill="none" stroke="#000000" d="M 1176 40 L 1279 40 L 1279 79 L 1176 79 L 1176 40 Z Z" stroke-miterlimit="10"></path></g><g transform="translate(-22,10) scale(1,1)"><g><path fill="none" stroke="none"></path><text fill="#000000" stroke="none" font-family="Arial" font-size="13px" font-style="normal" font-weight="bold" text-decoration="none" x="1190" y="59.5">ZygoteServer</text></g></g><g transform="translate(-22,10) scale(1,1)"><path fill="none" stroke="#000000" d="M 1228.5 80 L 1228.5 1282" stroke-miterlimit="10" stroke-dasharray="3"></path></g><g transform="translate(-22,10) scale(1,1)"><rect fill="#C0C0C0" stroke="none" x="1295" y="47" width="133" height="39" opacity="0.2"></rect></g><g transform="translate(-22,10) scale(1,1)"><rect fill="#ffffff" stroke="none" x="1288" y="40" width="133" height="39"></rect></g><g transform="translate(-22,10) scale(1,1)"><path fill="none" stroke="#000000" d="M 1288 40 L 1421 40 L 1421 79 L 1288 79 L 1288 40 Z Z" stroke-miterlimit="10"></path></g><g transform="translate(-22,10) scale(1,1)"><g><path fill="none" stroke="none"></path><text fill="#000000" stroke="none" font-family="Arial" font-size="13px" font-style="normal" font-weight="bold" text-decoration="none" x="1302.5" y="59.5">ZygoteConnection</text></g></g><g transform="translate(-22,10) scale(1,1)"><path fill="none" stroke="#000000" d="M 1355.5 80 L 1355.5 1614" stroke-miterlimit="10" stroke-dasharray="3"></path></g><g transform="translate(-22,10) scale(1,1)"><rect fill="#C0C0C0" stroke="none" x="1431" y="47" width="74" height="39" opacity="0.2"></rect></g><g transform="translate(-22,10) scale(1,1)"><rect fill="#ffffff" stroke="none" x="1424" y="40" width="74" height="39"></rect></g><g transform="translate(-22,10) scale(1,1)"><path fill="none" stroke="#000000" d="M 1424 40 L 1498 40 L 1498 79 L 1424 79 L 1424 40 Z Z" stroke-miterlimit="10"></path></g><g transform="translate(-22,10) scale(1,1)"><g><path fill="none" stroke="none"></path><text fill="#000000" stroke="none" font-family="Arial" font-size="13px" font-style="normal" font-weight="bold" text-decoration="none" x="1441.5" y="59.5">Zygote</text></g></g><g transform="translate(-22,10) scale(1,1)"><path fill="none" stroke="#000000" d="M 1462.5 80 L 1462.5 1506" stroke-miterlimit="10" stroke-dasharray="3"></path></g><g transform="translate(-22,10) scale(1,1)"><rect fill="#C0C0C0" stroke="none" x="1511" y="47" width="81" height="39" opacity="0.2"></rect></g><g transform="translate(-22,10) scale(1,1)"><rect fill="#ffffff" stroke="none" x="1504" y="40" width="81" height="39"></rect></g><g transform="translate(-22,10) scale(1,1)"><path fill="none" stroke="#000000" d="M 1504 40 L 1585 40 L 1585 79 L 1504 79 L 1504 40 Z Z" stroke-miterlimit="10"></path></g><g transform="translate(-22,10) scale(1,1)"><g><path fill="none" stroke="none"></path><text fill="#000000" stroke="none" font-family="Arial" font-size="13px" font-style="normal" font-weight="bold" text-decoration="none" x="1516.5" y="59.5">ZygoteInit</text></g></g><g transform="translate(-22,10) scale(1,1)"><path fill="none" stroke="#000000" d="M 1545.5 80 L 1545.5 1610" stroke-miterlimit="10" stroke-dasharray="3"></path></g><g transform="translate(-22,10) scale(1,1)"><rect fill="#C0C0C0" stroke="none" x="1599" y="47" width="92" height="39" opacity="0.2"></rect></g><g transform="translate(-22,10) scale(1,1)"><rect fill="#ffffff" stroke="none" x="1592" y="40" width="92" height="39"></rect></g><g transform="translate(-22,10) scale(1,1)"><path fill="none" stroke="#000000" d="M 1592 40 L 1684 40 L 1684 79 L 1592 79 L 1592 40 Z Z" stroke-miterlimit="10"></path></g><g transform="translate(-22,10) scale(1,1)"><g><path fill="none" stroke="none"></path><text fill="#000000" stroke="none" font-family="Arial" font-size="13px" font-style="normal" font-weight="bold" text-decoration="none" x="1605.5" y="59.5">RuntimeInit</text></g></g><g transform="translate(-22,10) scale(1,1)"><path fill="none" stroke="#000000" d="M 1639.5 80 L 1639.5 1642" stroke-miterlimit="10" stroke-dasharray="3"></path></g><g transform="translate(-22,10) scale(1,1)"><rect fill="#C0C0C0" stroke="none" x="1695" y="47" width="110" height="39" opacity="0.2"></rect></g><g transform="translate(-22,10) scale(1,1)"><rect fill="#ffffff" stroke="none" x="1688" y="40" width="110" height="39"></rect></g><g transform="translate(-22,10) scale(1,1)"><path fill="none" stroke="#000000" d="M 1688 40 L 1798 40 L 1798 79 L 1688 79 L 1688 40 Z Z" stroke-miterlimit="10"></path></g><g transform="translate(-22,10) scale(1,1)"><g><path fill="none" stroke="none"></path><text fill="#000000" stroke="none" font-family="Arial" font-size="13px" font-style="normal" font-weight="bold" text-decoration="none" x="1702.5" y="59.5">ActivityThread</text></g></g><g transform="translate(-22,10) scale(1,1)"><path fill="none" stroke="#000000" d="M 1744.5 80 L 1744.5 2074" stroke-miterlimit="10" stroke-dasharray="3"></path></g><g transform="translate(-22,10) scale(1,1)"><rect fill="#C0C0C0" stroke="none" x="1807" y="47" width="144" height="39" opacity="0.2"></rect></g><g transform="translate(-22,10) scale(1,1)"><rect fill="#ffffff" stroke="none" x="1800" y="40" width="144" height="39"></rect></g><g transform="translate(-22,10) scale(1,1)"><path fill="none" stroke="#000000" d="M 1800 40 L 1944 40 L 1944 79 L 1800 79 L 1800 40 Z Z" stroke-miterlimit="10"></path></g><g transform="translate(-22,10) scale(1,1)"><g><path fill="none" stroke="none"></path><text fill="#000000" stroke="none" font-family="Arial" font-size="13px" font-style="normal" font-weight="bold" text-decoration="none" x="1816" y="59.5">LaunchActivitiyItem</text></g></g><g transform="translate(-22,10) scale(1,1)"><path fill="none" stroke="#000000" d="M 1873.5 80 L 1873.5 1978" stroke-miterlimit="10" stroke-dasharray="3"></path></g><g transform="translate(-22,10) scale(1,1)"><path fill="none" stroke="#000000" d="M 78 104 L 108 104 L 108 124 L 84 124" stroke-miterlimit="10"></path></g><g transform="translate(-22,10) scale(1,1)"><path fill="#000000" stroke="none" d="M 94.16267485762415 119.79048224398402 L 84 124 L 94.16267485762415 128.209517756016"></path></g><g transform="translate(-22,10) scale(1,1)"><path fill="none" stroke="#000000" d="M 94.16267485762415 119.79048224398402 L 84 124 L 94.16267485762415 128.209517756016 L 94.16267485762415 119.79048224398402" stroke-miterlimit="10"></path></g><g transform="translate(-22,10) scale(1,1)"><g><path fill="none" stroke="none"></path><text fill="#000000" stroke="none" font-family="Arial" font-size="13px" font-style="normal" font-weight="normal" text-decoration="none" x="73.5" y="119.5">1 : startActivity</text></g></g><g transform="translate(-22,10) scale(1,1)"><rect fill="#ffffff" stroke="none" x="71" y="124" width="13" height="28"></rect></g><g transform="translate(-22,10) scale(1,1)"><path fill="none" stroke="#000000" d="M 71 124 L 84 124 L 84 152 L 71 152 L 71 124 Z Z" stroke-miterlimit="10"></path></g><g transform="translate(-22,10) scale(1,1)"><path fill="none" stroke="#000000" d="M 78 176 L 108 176 L 108 196 L 84 196" stroke-miterlimit="10"></path></g><g transform="translate(-22,10) scale(1,1)"><path fill="#000000" stroke="none" d="M 94.16267485762415 191.790482243984 L 84 196 L 94.16267485762415 200.209517756016"></path></g><g transform="translate(-22,10) scale(1,1)"><path fill="none" stroke="#000000" d="M 94.16267485762415 191.790482243984 L 84 196 L 94.16267485762415 200.209517756016 L 94.16267485762415 191.790482243984" stroke-miterlimit="10"></path></g><g transform="translate(-22,10) scale(1,1)"><g><path fill="none" stroke="none"></path><text fill="#000000" stroke="none" font-family="Arial" font-size="13px" font-style="normal" font-weight="normal" text-decoration="none" x="45.5" y="191.5">2 : startActivityForResult</text></g></g><g transform="translate(-22,10) scale(1,1)"><rect fill="#ffffff" stroke="none" x="71" y="196" width="13" height="28"></rect></g><g transform="translate(-22,10) scale(1,1)"><path fill="none" stroke="#000000" d="M 71 196 L 84 196 L 84 224 L 71 224 L 71 196 Z Z" stroke-miterlimit="10"></path></g><g transform="translate(-22,10) scale(1,1)"><path fill="none" stroke="#000000" d="M 78 248 L 173 248" stroke-miterlimit="10"></path></g><g transform="translate(-22,10) scale(1,1)"><path fill="#000000" stroke="none" d="M 162.83732514237585 252.209517756016 L 173 248 L 162.83732514237585 243.790482243984"></path></g><g transform="translate(-22,10) scale(1,1)"><path fill="none" stroke="#000000" d="M 162.83732514237585 252.209517756016 L 173 248 L 162.83732514237585 243.790482243984 L 162.83732514237585 252.209517756016" stroke-miterlimit="10"></path></g><g transform="translate(-22,10) scale(1,1)"><g><path fill="none" stroke="none"></path><text fill="#000000" stroke="none" font-family="Arial" font-size="13px" font-style="normal" font-weight="normal" text-decoration="none" x="66.5" y="244.5">3 : execStartActivity</text></g></g><g transform="translate(-22,10) scale(1,1)"><rect fill="#ffffff" stroke="none" x="173" y="248" width="13" height="28"></rect></g><g transform="translate(-22,10) scale(1,1)"><path fill="none" stroke="#000000" d="M 173 248 L 186 248 L 186 276 L 173 276 L 173 248 Z Z" stroke-miterlimit="10"></path></g><g transform="translate(-22,10) scale(1,1)"><path fill="none" stroke="#000000" d="M 180 280 L 326 280" stroke-miterlimit="10"></path></g><g transform="translate(-22,10) scale(1,1)"><path fill="#000000" stroke="none" d="M 315.83732514237585 284.209517756016 L 326 280 L 315.83732514237585 275.790482243984"></path></g><g transform="translate(-22,10) scale(1,1)"><path fill="none" stroke="#000000" d="M 315.83732514237585 284.209517756016 L 326 280 L 315.83732514237585 275.790482243984 L 315.83732514237585 284.209517756016" stroke-miterlimit="10"></path></g><g transform="translate(-22,10) scale(1,1)"><g><path fill="none" stroke="none"></path><text fill="#000000" stroke="none" font-family="Arial" font-size="13px" font-style="normal" font-weight="normal" text-decoration="none" x="209.5" y="276.5">4 : startActivity</text></g></g><g transform="translate(-22,10) scale(1,1)"><rect fill="#ffffff" stroke="none" x="326" y="280" width="13" height="28"></rect></g><g transform="translate(-22,10) scale(1,1)"><path fill="none" stroke="#000000" d="M 326 280 L 339 280 L 339 308 L 326 308 L 326 280 Z Z" stroke-miterlimit="10"></path></g><g transform="translate(-22,10) scale(1,1)"><path fill="none" stroke="#000000" d="M 333 312 L 363 312 L 363 332 L 339 332" stroke-miterlimit="10"></path></g><g transform="translate(-22,10) scale(1,1)"><path fill="#000000" stroke="none" d="M 349.16267485762415 327.790482243984 L 339 332 L 349.16267485762415 336.209517756016"></path></g><g transform="translate(-22,10) scale(1,1)"><path fill="none" stroke="#000000" d="M 349.16267485762415 327.790482243984 L 339 332 L 349.16267485762415 336.209517756016 L 349.16267485762415 327.790482243984" stroke-miterlimit="10"></path></g><g transform="translate(-22,10) scale(1,1)"><g><path fill="none" stroke="none"></path><text fill="#000000" stroke="none" font-family="Arial" font-size="13px" font-style="normal" font-weight="normal" text-decoration="none" x="306.5" y="327.5">5 : startActivityAsUser</text></g></g><g transform="translate(-22,10) scale(1,1)"><rect fill="#ffffff" stroke="none" x="326" y="332" width="13" height="28"></rect></g><g transform="translate(-22,10) scale(1,1)"><path fill="none" stroke="#000000" d="M 326 332 L 339 332 L 339 360 L 326 360 L 326 332 Z Z" stroke-miterlimit="10"></path></g><g transform="translate(-22,10) scale(1,1)"><path fill="none" stroke="#000000" d="M 333 368 L 497 368" stroke-miterlimit="10"></path></g><g transform="translate(-22,10) scale(1,1)"><path fill="#000000" stroke="none" d="M 486.83732514237585 372.209517756016 L 497 368 L 486.83732514237585 363.790482243984"></path></g><g transform="translate(-22,10) scale(1,1)"><path fill="none" stroke="#000000" d="M 486.83732514237585 372.209517756016 L 497 368 L 486.83732514237585 363.790482243984 L 486.83732514237585 372.209517756016" stroke-miterlimit="10"></path></g><g transform="translate(-22,10) scale(1,1)"><g><path fill="none" stroke="none"></path><text fill="#000000" stroke="none" font-family="Arial" font-size="13px" font-style="normal" font-weight="normal" text-decoration="none" x="368.5" y="364.5">6 : obtainStarter</text></g></g><g transform="translate(-22,10) scale(1,1)"><rect fill="#ffffff" stroke="none" x="497" y="368" width="13" height="28"></rect></g><g transform="translate(-22,10) scale(1,1)"><path fill="none" stroke="#000000" d="M 497 368 L 510 368 L 510 396 L 497 396 L 497 368 Z Z" stroke-miterlimit="10"></path></g><g transform="translate(-22,10) scale(1,1)"><path fill="none" stroke="#000000" d="M 504 400 L 632 400" stroke-miterlimit="10"></path></g><g transform="translate(-22,10) scale(1,1)"><path fill="#000000" stroke="none" d="M 621.8373251423759 404.209517756016 L 632 400 L 621.8373251423758 395.790482243984"></path></g><g transform="translate(-22,10) scale(1,1)"><path fill="none" stroke="#000000" d="M 621.8373251423759 404.209517756016 L 632 400 L 621.8373251423758 395.790482243984 L 621.8373251423759 404.209517756016" stroke-miterlimit="10"></path></g><g transform="translate(-22,10) scale(1,1)"><g><path fill="none" stroke="none"></path><text fill="#000000" stroke="none" font-family="Arial" font-size="13px" font-style="normal" font-weight="normal" text-decoration="none" x="535.5" y="396.5">7 : execute</text></g></g><g transform="translate(-22,10) scale(1,1)"><rect fill="#ffffff" stroke="none" x="632" y="400" width="13" height="28"></rect></g><g transform="translate(-22,10) scale(1,1)"><path fill="none" stroke="#000000" d="M 632 400 L 645 400 L 645 428 L 632 428 L 632 400 Z Z" stroke-miterlimit="10"></path></g><g transform="translate(-22,10) scale(1,1)"><path fill="none" stroke="#000000" d="M 639 432 L 669 432 L 669 452 L 645 452" stroke-miterlimit="10"></path></g><g transform="translate(-22,10) scale(1,1)"><path fill="#000000" stroke="none" d="M 655.1626748576241 447.790482243984 L 645 452 L 655.1626748576241 456.209517756016"></path></g><g transform="translate(-22,10) scale(1,1)"><path fill="none" stroke="#000000" d="M 655.1626748576241 447.790482243984 L 645 452 L 655.1626748576241 456.209517756016 L 655.1626748576241 447.790482243984" stroke-miterlimit="10"></path></g><g transform="translate(-22,10) scale(1,1)"><g><path fill="none" stroke="none"></path><text fill="#000000" stroke="none" font-family="Arial" font-size="13px" font-style="normal" font-weight="normal" text-decoration="none" x="608.5" y="447.5">8 : startActivityMayWait</text></g></g><g transform="translate(-22,10) scale(1,1)"><rect fill="#ffffff" stroke="none" x="632" y="452" width="13" height="28"></rect></g><g transform="translate(-22,10) scale(1,1)"><path fill="none" stroke="#000000" d="M 632 452 L 645 452 L 645 480 L 632 480 L 632 452 Z Z" stroke-miterlimit="10"></path></g><g transform="translate(-22,10) scale(1,1)"><path fill="none" stroke="#000000" d="M 639 488 L 669 488 L 669 508 L 645 508" stroke-miterlimit="10"></path></g><g transform="translate(-22,10) scale(1,1)"><path fill="#000000" stroke="none" d="M 655.1626748576241 503.790482243984 L 645 508 L 655.1626748576241 512.209517756016"></path></g><g transform="translate(-22,10) scale(1,1)"><path fill="none" stroke="#000000" d="M 655.1626748576241 503.790482243984 L 645 508 L 655.1626748576241 512.209517756016 L 655.1626748576241 503.790482243984" stroke-miterlimit="10"></path></g><g transform="translate(-22,10) scale(1,1)"><g><path fill="none" stroke="none"></path><text fill="#000000" stroke="none" font-family="Arial" font-size="13px" font-style="normal" font-weight="normal" text-decoration="none" x="634.5" y="503.5">9 : startActivity</text></g></g><g transform="translate(-22,10) scale(1,1)"><rect fill="#ffffff" stroke="none" x="632" y="508" width="13" height="28"></rect></g><g transform="translate(-22,10) scale(1,1)"><path fill="none" stroke="#000000" d="M 632 508 L 645 508 L 645 536 L 632 536 L 632 508 Z Z" stroke-miterlimit="10"></path></g><g transform="translate(-22,10) scale(1,1)"><path fill="none" stroke="#000000" d="M 639 544 L 669 544 L 669 564 L 645 564" stroke-miterlimit="10"></path></g><g transform="translate(-22,10) scale(1,1)"><path fill="#000000" stroke="none" d="M 655.1626748576241 559.790482243984 L 645 564 L 655.1626748576241 568.209517756016"></path></g><g transform="translate(-22,10) scale(1,1)"><path fill="none" stroke="#000000" d="M 655.1626748576241 559.790482243984 L 645 564 L 655.1626748576241 568.209517756016 L 655.1626748576241 559.790482243984" stroke-miterlimit="10"></path></g><g transform="translate(-22,10) scale(1,1)"><g><path fill="none" stroke="none"></path><text fill="#000000" stroke="none" font-family="Arial" font-size="13px" font-style="normal" font-weight="normal" text-decoration="none" x="598.5" y="559.5">10 : startActivityUnchecked</text></g></g><g transform="translate(-22,10) scale(1,1)"><rect fill="#ffffff" stroke="none" x="632" y="564" width="13" height="28"></rect></g><g transform="translate(-22,10) scale(1,1)"><path fill="none" stroke="#000000" d="M 632 564 L 645 564 L 645 592 L 632 592 L 632 564 Z Z" stroke-miterlimit="10"></path></g><g transform="translate(-22,10) scale(1,1)"><path fill="none" stroke="#000000" d="M 639 600 L 669 600 L 669 620 L 645 620" stroke-miterlimit="10"></path></g><g transform="translate(-22,10) scale(1,1)"><path fill="#000000" stroke="none" d="M 655.1626748576241 615.790482243984 L 645 620 L 655.1626748576241 624.209517756016"></path></g><g transform="translate(-22,10) scale(1,1)"><path fill="none" stroke="#000000" d="M 655.1626748576241 615.790482243984 L 645 620 L 655.1626748576241 624.209517756016 L 655.1626748576241 615.790482243984" stroke-miterlimit="10"></path></g><g transform="translate(-22,10) scale(1,1)"><g><path fill="none" stroke="none"></path><text fill="#000000" stroke="none" font-family="Arial" font-size="13px" font-style="normal" font-weight="normal" text-decoration="none" x="583.5" y="615.5">11 : resumeTargetStackIfNeeded</text></g></g><g transform="translate(-22,10) scale(1,1)"><rect fill="#ffffff" stroke="none" x="632" y="620" width="13" height="28"></rect></g><g transform="translate(-22,10) scale(1,1)"><path fill="none" stroke="#000000" d="M 632 620 L 645 620 L 645 648 L 632 648 L 632 620 Z Z" stroke-miterlimit="10"></path></g><g transform="translate(-22,10) scale(1,1)"><path fill="none" stroke="#000000" d="M 639 656 L 740 656" stroke-miterlimit="10"></path></g><g transform="translate(-22,10) scale(1,1)"><path fill="#000000" stroke="none" d="M 729.8373251423759 660.209517756016 L 740 656 L 729.8373251423758 651.790482243984"></path></g><g transform="translate(-22,10) scale(1,1)"><path fill="none" stroke="#000000" d="M 729.8373251423759 660.209517756016 L 740 656 L 729.8373251423758 651.790482243984 L 729.8373251423759 660.209517756016" stroke-miterlimit="10"></path></g><g transform="translate(-22,10) scale(1,1)"><g><path fill="none" stroke="none"></path><text fill="#000000" stroke="none" font-family="Arial" font-size="13px" font-style="normal" font-weight="normal" text-decoration="none" x="620.5" y="652.5">12 : startActivityLocked</text></g></g><g transform="translate(-22,10) scale(1,1)"><rect fill="#ffffff" stroke="none" x="740" y="656" width="13" height="28"></rect></g><g transform="translate(-22,10) scale(1,1)"><path fill="none" stroke="#000000" d="M 740 656 L 753 656 L 753 684 L 740 684 L 740 656 Z Z" stroke-miterlimit="10"></path></g><g transform="translate(-22,10) scale(1,1)"><path fill="none" stroke="#000000" d="M 639 704 L 878 704" stroke-miterlimit="10"></path></g><g transform="translate(-22,10) scale(1,1)"><path fill="#000000" stroke="none" d="M 867.8373251423759 708.209517756016 L 878 704 L 867.8373251423758 699.790482243984"></path></g><g transform="translate(-22,10) scale(1,1)"><path fill="none" stroke="#000000" d="M 867.8373251423759 708.209517756016 L 878 704 L 867.8373251423758 699.790482243984 L 867.8373251423759 708.209517756016" stroke-miterlimit="10"></path></g><g transform="translate(-22,10) scale(1,1)"><g><path fill="none" stroke="none"></path><text fill="#000000" stroke="none" font-family="Arial" font-size="13px" font-style="normal" font-weight="normal" text-decoration="none" x="628.5" y="700.5">13 : resumeFocusedStackTopActivityLocked</text></g></g><g transform="translate(-22,10) scale(1,1)"><rect fill="#ffffff" stroke="none" x="878" y="704" width="13" height="28"></rect></g><g transform="translate(-22,10) scale(1,1)"><path fill="none" stroke="#000000" d="M 878 704 L 891 704 L 891 732 L 878 732 L 878 704 Z Z" stroke-miterlimit="10"></path></g><g transform="translate(-22,10) scale(1,1)"><path fill="none" stroke="#000000" d="M 885 736 L 753 736" stroke-miterlimit="10"></path></g><g transform="translate(-22,10) scale(1,1)"><path fill="#000000" stroke="none" d="M 763.1626748576241 731.790482243984 L 753 736 L 763.1626748576241 740.209517756016"></path></g><g transform="translate(-22,10) scale(1,1)"><path fill="none" stroke="#000000" d="M 763.1626748576241 731.790482243984 L 753 736 L 763.1626748576241 740.209517756016 L 763.1626748576241 731.790482243984" stroke-miterlimit="10"></path></g><g transform="translate(-22,10) scale(1,1)"><g><path fill="none" stroke="none"></path><text fill="#000000" stroke="none" font-family="Arial" font-size="13px" font-style="normal" font-weight="normal" text-decoration="none" x="698.5" y="723.5">14 : resumeTopActivityUncheckedLocked</text></g></g><g transform="translate(-22,10) scale(1,1)"><rect fill="#ffffff" stroke="none" x="740" y="736" width="13" height="28"></rect></g><g transform="translate(-22,10) scale(1,1)"><path fill="none" stroke="#000000" d="M 740 736 L 753 736 L 753 764 L 740 764 L 740 736 Z Z" stroke-miterlimit="10"></path></g><g transform="translate(-22,10) scale(1,1)"><path fill="none" stroke="#000000" d="M 747 776 L 777 776 L 777 796 L 753 796" stroke-miterlimit="10"></path></g><g transform="translate(-22,10) scale(1,1)"><path fill="#000000" stroke="none" d="M 763.1626748576241 791.790482243984 L 753 796 L 763.1626748576241 800.209517756016"></path></g><g transform="translate(-22,10) scale(1,1)"><path fill="none" stroke="#000000" d="M 763.1626748576241 791.790482243984 L 753 796 L 763.1626748576241 800.209517756016 L 763.1626748576241 791.790482243984" stroke-miterlimit="10"></path></g><g transform="translate(-22,10) scale(1,1)"><g><path fill="none" stroke="none"></path><text fill="#000000" stroke="none" font-family="Arial" font-size="13px" font-style="normal" font-weight="normal" text-decoration="none" x="685" y="791.5">15 : resumeTopActivityInnerLocked</text></g></g><g transform="translate(-22,10) scale(1,1)"><rect fill="#ffffff" stroke="none" x="740" y="796" width="13" height="28"></rect></g><g transform="translate(-22,10) scale(1,1)"><path fill="none" stroke="#000000" d="M 740 796 L 753 796 L 753 824 L 740 824 L 740 796 Z Z" stroke-miterlimit="10"></path></g><g transform="translate(-22,10) scale(1,1)"><path fill="none" stroke="#000000" d="M 747 856 L 878 856" stroke-miterlimit="10"></path></g><g transform="translate(-22,10) scale(1,1)"><path fill="#000000" stroke="none" d="M 867.8373251423759 860.209517756016 L 878 856 L 867.8373251423758 851.790482243984"></path></g><g transform="translate(-22,10) scale(1,1)"><path fill="none" stroke="#000000" d="M 867.8373251423759 860.209517756016 L 878 856 L 867.8373251423758 851.790482243984 L 867.8373251423759 860.209517756016" stroke-miterlimit="10"></path></g><g transform="translate(-22,10) scale(1,1)"><g><path fill="none" stroke="none"></path><text fill="#000000" stroke="none" font-family="Arial" font-size="13px" font-style="normal" font-weight="normal" text-decoration="none" x="717.5" y="843.5">16 : startSpecificActivityLocked</text></g></g><g transform="translate(-22,10) scale(1,1)"><rect fill="#ffffff" stroke="none" x="878" y="856" width="13" height="28"></rect></g><g transform="translate(-22,10) scale(1,1)"><path fill="none" stroke="#000000" d="M 878 856 L 891 856 L 891 884 L 878 884 L 878 856 Z Z" stroke-miterlimit="10"></path></g><g transform="translate(-22,10) scale(1,1)"><path fill="none" stroke="#000000" d="M 885 928 L 339 928" stroke-miterlimit="10"></path></g><g transform="translate(-22,10) scale(1,1)"><path fill="#000000" stroke="none" d="M 349.16267485762415 923.790482243984 L 339 928 L 349.16267485762415 932.209517756016"></path></g><g transform="translate(-22,10) scale(1,1)"><path fill="none" stroke="#000000" d="M 349.16267485762415 923.790482243984 L 339 928 L 349.16267485762415 932.209517756016 L 349.16267485762415 923.790482243984" stroke-miterlimit="10"></path></g><g transform="translate(-22,10) scale(1,1)"><g><path fill="none" stroke="none"></path><text fill="#000000" stroke="none" font-family="Arial" font-size="13px" font-style="normal" font-weight="normal" text-decoration="none" x="539.5" y="944.5">17 : startProcessLocked</text></g></g><g transform="translate(-22,10) scale(1,1)"><rect fill="#ffffff" stroke="none" x="326" y="928" width="13" height="28"></rect></g><g transform="translate(-22,10) scale(1,1)"><path fill="none" stroke="#000000" d="M 326 928 L 339 928 L 339 956 L 326 956 L 326 928 Z Z" stroke-miterlimit="10"></path></g><g transform="translate(-22,10) scale(1,1)"><path fill="none" stroke="#000000" d="M 333 960 L 363 960 L 363 980 L 339 980" stroke-miterlimit="10"></path></g><g transform="translate(-22,10) scale(1,1)"><path fill="#000000" stroke="none" d="M 349.16267485762415 975.790482243984 L 339 980 L 349.16267485762415 984.209517756016"></path></g><g transform="translate(-22,10) scale(1,1)"><path fill="none" stroke="#000000" d="M 349.16267485762415 975.790482243984 L 339 980 L 349.16267485762415 984.209517756016 L 349.16267485762415 975.790482243984" stroke-miterlimit="10"></path></g><g transform="translate(-22,10) scale(1,1)"><g><path fill="none" stroke="none"></path><text fill="#000000" stroke="none" font-family="Arial" font-size="13px" font-style="normal" font-weight="normal" text-decoration="none" x="321.5" y="975.5">18 : startProcess</text></g></g><g transform="translate(-22,10) scale(1,1)"><rect fill="#ffffff" stroke="none" x="326" y="980" width="13" height="28"></rect></g><g transform="translate(-22,10) scale(1,1)"><path fill="none" stroke="#000000" d="M 326 980 L 339 980 L 339 1008 L 326 1008 L 326 980 Z Z" stroke-miterlimit="10"></path></g><g transform="translate(-22,10) scale(1,1)"><path fill="none" stroke="#000000" d="M 333 1016 L 1007 1016" stroke-miterlimit="10"></path></g><g transform="translate(-22,10) scale(1,1)"><path fill="#000000" stroke="none" d="M 996.8373251423759 1020.209517756016 L 1007 1016 L 996.8373251423758 1011.790482243984"></path></g><g transform="translate(-22,10) scale(1,1)"><path fill="none" stroke="#000000" d="M 996.8373251423759 1020.209517756016 L 1007 1016 L 996.8373251423758 1011.790482243984 L 996.8373251423759 1020.209517756016" stroke-miterlimit="10"></path></g><g transform="translate(-22,10) scale(1,1)"><g><path fill="none" stroke="none"></path><text fill="#000000" stroke="none" font-family="Arial" font-size="13px" font-style="normal" font-weight="normal" text-decoration="none" x="643.5" y="1012.5">19 : start</text></g></g><g transform="translate(-22,10) scale(1,1)"><rect fill="#ffffff" stroke="none" x="1007" y="1016" width="13" height="28"></rect></g><g transform="translate(-22,10) scale(1,1)"><path fill="none" stroke="#000000" d="M 1007 1016 L 1020 1016 L 1020 1044 L 1007 1044 L 1007 1016 Z Z" stroke-miterlimit="10"></path></g><g transform="translate(-22,10) scale(1,1)"><path fill="none" stroke="#000000" d="M 1014 1048 L 1105 1048" stroke-miterlimit="10"></path></g><g transform="translate(-22,10) scale(1,1)"><path fill="#000000" stroke="none" d="M 1094.837325142376 1052.2095177560159 L 1105 1048 L 1094.837325142376 1043.7904822439841"></path></g><g transform="translate(-22,10) scale(1,1)"><path fill="none" stroke="#000000" d="M 1094.837325142376 1052.2095177560159 L 1105 1048 L 1094.837325142376 1043.7904822439841 L 1094.837325142376 1052.2095177560159" stroke-miterlimit="10"></path></g><g transform="translate(-22,10) scale(1,1)"><g><path fill="none" stroke="none"></path><text fill="#000000" stroke="none" font-family="Arial" font-size="13px" font-style="normal" font-weight="normal" text-decoration="none" x="1032.5" y="1044.5">20 : start</text></g></g><g transform="translate(-22,10) scale(1,1)"><rect fill="#ffffff" stroke="none" x="1105" y="1048" width="13" height="28"></rect></g><g transform="translate(-22,10) scale(1,1)"><path fill="none" stroke="#000000" d="M 1105 1048 L 1118 1048 L 1118 1076 L 1105 1076 L 1105 1048 Z Z" stroke-miterlimit="10"></path></g><g transform="translate(-22,10) scale(1,1)"><path fill="none" stroke="#000000" d="M 1112 1088 L 1142 1088 L 1142 1108 L 1118 1108" stroke-miterlimit="10"></path></g><g transform="translate(-22,10) scale(1,1)"><path fill="#000000" stroke="none" d="M 1128.162674857624 1103.7904822439841 L 1118 1108 L 1128.162674857624 1112.2095177560159"></path></g><g transform="translate(-22,10) scale(1,1)"><path fill="none" stroke="#000000" d="M 1128.162674857624 1103.7904822439841 L 1118 1108 L 1128.162674857624 1112.2095177560159 L 1128.162674857624 1103.7904822439841" stroke-miterlimit="10"></path></g><g transform="translate(-22,10) scale(1,1)"><g><path fill="none" stroke="none"></path><text fill="#000000" stroke="none" font-family="Arial" font-size="13px" font-style="normal" font-weight="normal" text-decoration="none" x="1095.5" y="1103.5">21 : startViaZygote</text></g></g><g transform="translate(-22,10) scale(1,1)"><rect fill="#ffffff" stroke="none" x="1105" y="1108" width="13" height="28"></rect></g><g transform="translate(-22,10) scale(1,1)"><path fill="none" stroke="#000000" d="M 1105 1108 L 1118 1108 L 1118 1136 L 1105 1136 L 1105 1108 Z Z" stroke-miterlimit="10"></path></g><g transform="translate(-22,10) scale(1,1)"><path fill="none" stroke="#000000" d="M 1112 1144 L 1142 1144 L 1142 1164 L 1118 1164" stroke-miterlimit="10"></path></g><g transform="translate(-22,10) scale(1,1)"><path fill="#000000" stroke="none" d="M 1128.162674857624 1159.7904822439841 L 1118 1164 L 1128.162674857624 1168.2095177560159"></path></g><g transform="translate(-22,10) scale(1,1)"><path fill="none" stroke="#000000" d="M 1128.162674857624 1159.7904822439841 L 1118 1164 L 1128.162674857624 1168.2095177560159 L 1128.162674857624 1159.7904822439841" stroke-miterlimit="10"></path></g><g transform="translate(-22,10) scale(1,1)"><g><path fill="none" stroke="none"></path><text fill="#000000" stroke="none" font-family="Arial" font-size="13px" font-style="normal" font-weight="normal" text-decoration="none" x="1049.5" y="1159.5">22 : zygoteSendArgsAndGetResult</text></g></g><g transform="translate(-22,10) scale(1,1)"><rect fill="#ffffff" stroke="none" x="1105" y="1164" width="13" height="28"></rect></g><g transform="translate(-22,10) scale(1,1)"><path fill="none" stroke="#000000" d="M 1105 1164 L 1118 1164 L 1118 1192 L 1105 1192 L 1105 1164 Z Z" stroke-miterlimit="10"></path></g><g transform="translate(-22,10) scale(1,1)"><path fill="none" stroke="#000000" d="M 1112 1200 L 1221 1200" stroke-miterlimit="10"></path></g><g transform="translate(-22,10) scale(1,1)"><path fill="#000000" stroke="none" d="M 1210.837325142376 1204.2095177560159 L 1221 1200 L 1210.837325142376 1195.7904822439841"></path></g><g transform="translate(-22,10) scale(1,1)"><path fill="none" stroke="#000000" d="M 1210.837325142376 1204.2095177560159 L 1221 1200 L 1210.837325142376 1195.7904822439841 L 1210.837325142376 1204.2095177560159" stroke-miterlimit="10"></path></g><g transform="translate(-22,10) scale(1,1)"><g><path fill="none" stroke="none"></path><text fill="#000000" stroke="none" font-family="Arial" font-size="13px" font-style="normal" font-weight="normal" text-decoration="none" x="1111.5" y="1196.5">23 : runSelectLoop</text></g></g><g transform="translate(-22,10) scale(1,1)"><rect fill="#ffffff" stroke="none" x="1221" y="1200" width="13" height="28"></rect></g><g transform="translate(-22,10) scale(1,1)"><path fill="none" stroke="#000000" d="M 1221 1200 L 1234 1200 L 1234 1228 L 1221 1228 L 1221 1200 Z Z" stroke-miterlimit="10"></path></g><g transform="translate(-22,10) scale(1,1)"><path fill="none" stroke="#000000" d="M 1228 1240 L 1348 1240" stroke-miterlimit="10"></path></g><g transform="translate(-22,10) scale(1,1)"><path fill="#000000" stroke="none" d="M 1337.837325142376 1244.2095177560159 L 1348 1240 L 1337.837325142376 1235.7904822439841"></path></g><g transform="translate(-22,10) scale(1,1)"><path fill="none" stroke="#000000" d="M 1337.837325142376 1244.2095177560159 L 1348 1240 L 1337.837325142376 1235.7904822439841 L 1337.837325142376 1244.2095177560159" stroke-miterlimit="10"></path></g><g transform="translate(-22,10) scale(1,1)"><g><path fill="none" stroke="none"></path><text fill="#000000" stroke="none" font-family="Arial" font-size="13px" font-style="normal" font-weight="normal" text-decoration="none" x="1210.5" y="1236.5">24 : processOneCommand</text></g></g><g transform="translate(-22,10) scale(1,1)"><rect fill="#ffffff" stroke="none" x="1348" y="1240" width="13" height="28"></rect></g><g transform="translate(-22,10) scale(1,1)"><path fill="none" stroke="#000000" d="M 1348 1240 L 1361 1240 L 1361 1268 L 1348 1268 L 1348 1240 Z Z" stroke-miterlimit="10"></path></g><g transform="translate(-22,10) scale(1,1)"><path fill="none" stroke="#000000" d="M 1355 1272 L 1455 1272" stroke-miterlimit="10"></path></g><g transform="translate(-22,10) scale(1,1)"><path fill="#000000" stroke="none" d="M 1444.837325142376 1276.2095177560159 L 1455 1272 L 1444.837325142376 1267.7904822439841"></path></g><g transform="translate(-22,10) scale(1,1)"><path fill="none" stroke="#000000" d="M 1444.837325142376 1276.2095177560159 L 1455 1272 L 1444.837325142376 1267.7904822439841 L 1444.837325142376 1276.2095177560159" stroke-miterlimit="10"></path></g><g transform="translate(-22,10) scale(1,1)"><g><path fill="none" stroke="none"></path><text fill="#000000" stroke="none" font-family="Arial" font-size="13px" font-style="normal" font-weight="normal" text-decoration="none" x="1339.5" y="1268.5">25 : forkAndSpecialize</text></g></g><g transform="translate(-22,10) scale(1,1)"><rect fill="#ffffff" stroke="none" x="1455" y="1272" width="13" height="28"></rect></g><g transform="translate(-22,10) scale(1,1)"><path fill="none" stroke="#000000" d="M 1455 1272 L 1468 1272 L 1468 1300 L 1455 1300 L 1455 1272 Z Z" stroke-miterlimit="10"></path></g><g transform="translate(-22,10) scale(1,1)"><path fill="none" stroke="#000000" d="M 1462 1304 L 1492 1304 L 1492 1324 L 1468 1324" stroke-miterlimit="10"></path></g><g transform="translate(-22,10) scale(1,1)"><path fill="#000000" stroke="none" d="M 1478.162674857624 1319.7904822439841 L 1468 1324 L 1478.162674857624 1328.2095177560159"></path></g><g transform="translate(-22,10) scale(1,1)"><path fill="none" stroke="#000000" d="M 1478.162674857624 1319.7904822439841 L 1468 1324 L 1478.162674857624 1328.2095177560159 L 1478.162674857624 1319.7904822439841" stroke-miterlimit="10"></path></g><g transform="translate(-22,10) scale(1,1)"><g><path fill="none" stroke="none"></path><text fill="#000000" stroke="none" font-family="Arial" font-size="13px" font-style="normal" font-weight="normal" text-decoration="none" x="1416.5" y="1319.5">26 : nativeForkAndSpecialize</text></g></g><g transform="translate(-22,10) scale(1,1)"><rect fill="#ffffff" stroke="none" x="1455" y="1324" width="13" height="28"></rect></g><g transform="translate(-22,10) scale(1,1)"><path fill="none" stroke="#000000" d="M 1455 1324 L 1468 1324 L 1468 1352 L 1455 1352 L 1455 1324 Z Z" stroke-miterlimit="10"></path></g><g transform="translate(-22,10) scale(1,1)"><path fill="none" stroke="#000000" d="M 1462 1352 L 1492 1352 L 1492 1372 L 1468 1372" stroke-miterlimit="10"></path></g><g transform="translate(-22,10) scale(1,1)"><path fill="#000000" stroke="none" d="M 1478.162674857624 1367.7904822439841 L 1468 1372 L 1478.162674857624 1376.2095177560159"></path></g><g transform="translate(-22,10) scale(1,1)"><path fill="none" stroke="#000000" d="M 1478.162674857624 1367.7904822439841 L 1468 1372 L 1478.162674857624 1376.2095177560159 L 1478.162674857624 1367.7904822439841" stroke-miterlimit="10"></path></g><g transform="translate(-22,10) scale(1,1)"><g><path fill="none" stroke="none"></path><text fill="#000000" stroke="none" font-family="Arial" font-size="13px" font-style="normal" font-weight="normal" text-decoration="none" x="1407.5" y="1367.5">27 : ForkAndSpecializeCommon</text></g></g><g transform="translate(-22,10) scale(1,1)"><rect fill="#ffffff" stroke="none" x="1455" y="1372" width="13" height="28"></rect></g><g transform="translate(-22,10) scale(1,1)"><path fill="none" stroke="#000000" d="M 1455 1372 L 1468 1372 L 1468 1400 L 1455 1400 L 1455 1372 Z Z" stroke-miterlimit="10"></path></g><g transform="translate(-22,10) scale(1,1)"><path fill="none" stroke="#000000" d="M 1462 1408 L 1492 1408 L 1492 1428 L 1468 1428" stroke-miterlimit="10"></path></g><g transform="translate(-22,10) scale(1,1)"><path fill="#000000" stroke="none" d="M 1478.162674857624 1423.7904822439841 L 1468 1428 L 1478.162674857624 1432.2095177560159"></path></g><g transform="translate(-22,10) scale(1,1)"><path fill="none" stroke="#000000" d="M 1478.162674857624 1423.7904822439841 L 1468 1428 L 1478.162674857624 1432.2095177560159 L 1478.162674857624 1423.7904822439841" stroke-miterlimit="10"></path></g><g transform="translate(-22,10) scale(1,1)"><g><path fill="none" stroke="none"></path><text fill="#000000" stroke="none" font-family="Arial" font-size="13px" font-style="normal" font-weight="normal" text-decoration="none" x="1477" y="1423.5">28 : fork</text></g></g><g transform="translate(-22,10) scale(1,1)"><rect fill="#ffffff" stroke="none" x="1455" y="1428" width="13" height="28"></rect></g><g transform="translate(-22,10) scale(1,1)"><path fill="none" stroke="#000000" d="M 1455 1428 L 1468 1428 L 1468 1456 L 1455 1456 L 1455 1428 Z Z" stroke-miterlimit="10"></path></g><g transform="translate(-22,10) scale(1,1)"><path fill="none" stroke="#000000" d="M 1462 1464 L 1361 1464" stroke-miterlimit="10"></path></g><g transform="translate(-22,10) scale(1,1)"><path fill="#000000" stroke="none" d="M 1371.162674857624 1459.7904822439841 L 1361 1464 L 1371.162674857624 1468.2095177560159"></path></g><g transform="translate(-22,10) scale(1,1)"><path fill="none" stroke="#000000" d="M 1371.162674857624 1459.7904822439841 L 1361 1464 L 1371.162674857624 1468.2095177560159 L 1371.162674857624 1459.7904822439841" stroke-miterlimit="10"></path></g><g transform="translate(-22,10) scale(1,1)"><g><path fill="none" stroke="none"></path><text fill="#000000" stroke="none" font-family="Arial" font-size="13px" font-style="normal" font-weight="normal" text-decoration="none" x="1349.5" y="1480.5">29 : handleChildProc</text></g></g><g transform="translate(-22,10) scale(1,1)"><rect fill="#ffffff" stroke="none" x="1348" y="1464" width="13" height="28"></rect></g><g transform="translate(-22,10) scale(1,1)"><path fill="none" stroke="#000000" d="M 1348 1464 L 1361 1464 L 1361 1492 L 1348 1492 L 1348 1464 Z Z" stroke-miterlimit="10"></path></g><g transform="translate(-22,10) scale(1,1)"><path fill="none" stroke="#000000" d="M 1355 1496 L 1385 1496 L 1385 1516 L 1361 1516" stroke-miterlimit="10"></path></g><g transform="translate(-22,10) scale(1,1)"><path fill="#000000" stroke="none" d="M 1371.162674857624 1511.7904822439841 L 1361 1516 L 1371.162674857624 1520.2095177560159"></path></g><g transform="translate(-22,10) scale(1,1)"><path fill="none" stroke="#000000" d="M 1371.162674857624 1511.7904822439841 L 1361 1516 L 1371.162674857624 1520.2095177560159 L 1371.162674857624 1511.7904822439841" stroke-miterlimit="10"></path></g><g transform="translate(-22,10) scale(1,1)"><g><path fill="none" stroke="none"></path><text fill="#000000" stroke="none" font-family="Arial" font-size="13px" font-style="normal" font-weight="normal" text-decoration="none" x="1352.5" y="1511.5">30 : zygoteInit</text></g></g><g transform="translate(-22,10) scale(1,1)"><rect fill="#ffffff" stroke="none" x="1348" y="1516" width="13" height="28"></rect></g><g transform="translate(-22,10) scale(1,1)"><path fill="none" stroke="#000000" d="M 1348 1516 L 1361 1516 L 1361 1544 L 1348 1544 L 1348 1516 Z Z" stroke-miterlimit="10"></path></g><g transform="translate(-22,10) scale(1,1)"><path fill="none" stroke="#000000" d="M 1361 1528 L 1538 1528" stroke-miterlimit="10"></path></g><g transform="translate(-22,10) scale(1,1)"><path fill="#000000" stroke="none" d="M 1527.837325142376 1532.2095177560159 L 1538 1528 L 1527.837325142376 1523.7904822439841"></path></g><g transform="translate(-22,10) scale(1,1)"><path fill="none" stroke="#000000" d="M 1527.837325142376 1532.2095177560159 L 1538 1528 L 1527.837325142376 1523.7904822439841 L 1527.837325142376 1532.2095177560159" stroke-miterlimit="10"></path></g><g transform="translate(-22,10) scale(1,1)"><g><path fill="none" stroke="none"></path><text fill="#000000" stroke="none" font-family="Arial" font-size="13px" font-style="normal" font-weight="normal" text-decoration="none" x="1407.5" y="1524.5">31 : zygoteInit</text></g></g><g transform="translate(-22,10) scale(1,1)"><rect fill="#ffffff" stroke="none" x="1538" y="1528" width="13" height="28"></rect></g><g transform="translate(-22,10) scale(1,1)"><path fill="none" stroke="#000000" d="M 1538 1528 L 1551 1528 L 1551 1556 L 1538 1556 L 1538 1528 Z Z" stroke-miterlimit="10"></path></g><g transform="translate(-22,10) scale(1,1)"><path fill="none" stroke="#000000" d="M 1355 1552 L 1385 1552 L 1385 1572 L 1361 1572" stroke-miterlimit="10"></path></g><g transform="translate(-22,10) scale(1,1)"><path fill="#000000" stroke="none" d="M 1371.162674857624 1567.7904822439841 L 1361 1572 L 1371.162674857624 1576.2095177560159"></path></g><g transform="translate(-22,10) scale(1,1)"><path fill="none" stroke="#000000" d="M 1371.162674857624 1567.7904822439841 L 1361 1572 L 1371.162674857624 1576.2095177560159 L 1371.162674857624 1567.7904822439841" stroke-miterlimit="10"></path></g><g transform="translate(-22,10) scale(1,1)"><g><path fill="none" stroke="none"></path><text fill="#000000" stroke="none" font-family="Arial" font-size="13px" font-style="normal" font-weight="normal" text-decoration="none" x="1350.5" y="1567.5">32 : Message1</text></g></g><g transform="translate(-22,10) scale(1,1)"><rect fill="#ffffff" stroke="none" x="1348" y="1572" width="13" height="28"></rect></g><g transform="translate(-22,10) scale(1,1)"><path fill="none" stroke="#000000" d="M 1348 1572 L 1361 1572 L 1361 1600 L 1348 1600 L 1348 1572 Z Z" stroke-miterlimit="10"></path></g><g transform="translate(-22,10) scale(1,1)"><path fill="none" stroke="#000000" d="M 1545 1568 L 1632 1568" stroke-miterlimit="10"></path></g><g transform="translate(-22,10) scale(1,1)"><path fill="#000000" stroke="none" d="M 1621.837325142376 1572.2095177560159 L 1632 1568 L 1621.837325142376 1563.7904822439841"></path></g><g transform="translate(-22,10) scale(1,1)"><path fill="none" stroke="#000000" d="M 1621.837325142376 1572.2095177560159 L 1632 1568 L 1621.837325142376 1563.7904822439841 L 1621.837325142376 1572.2095177560159" stroke-miterlimit="10"></path></g><g transform="translate(-22,10) scale(1,1)"><g><path fill="none" stroke="none"></path><text fill="#000000" stroke="none" font-family="Arial" font-size="13px" font-style="normal" font-weight="normal" text-decoration="none" x="1533.5" y="1564.5">33 : findStaticMain</text></g></g><g transform="translate(-22,10) scale(1,1)"><rect fill="#ffffff" stroke="none" x="1632" y="1568" width="13" height="28"></rect></g><g transform="translate(-22,10) scale(1,1)"><path fill="none" stroke="#000000" d="M 1632 1568 L 1645 1568 L 1645 1596 L 1632 1596 L 1632 1568 Z Z" stroke-miterlimit="10"></path></g><g transform="translate(-22,10) scale(1,1)"><path fill="none" stroke="#000000" d="M 1639 1600 L 1737 1600" stroke-miterlimit="10"></path></g><g transform="translate(-22,10) scale(1,1)"><path fill="#000000" stroke="none" d="M 1726.837325142376 1604.2095177560159 L 1737 1600 L 1726.837325142376 1595.7904822439841"></path></g><g transform="translate(-22,10) scale(1,1)"><path fill="none" stroke="#000000" d="M 1726.837325142376 1604.2095177560159 L 1737 1600 L 1726.837325142376 1595.7904822439841 L 1726.837325142376 1604.2095177560159" stroke-miterlimit="10"></path></g><g transform="translate(-22,10) scale(1,1)"><g><path fill="none" stroke="none"></path><text fill="#000000" stroke="none" font-family="Arial" font-size="13px" font-style="normal" font-weight="normal" text-decoration="none" x="1660.5" y="1596.5">34 : main</text></g></g><g transform="translate(-22,10) scale(1,1)"><rect fill="#ffffff" stroke="none" x="1737" y="1600" width="13" height="28"></rect></g><g transform="translate(-22,10) scale(1,1)"><path fill="none" stroke="#000000" d="M 1737 1600 L 1750 1600 L 1750 1628 L 1737 1628 L 1737 1600 Z Z" stroke-miterlimit="10"></path></g><g transform="translate(-22,10) scale(1,1)"><path fill="none" stroke="#000000" d="M 1744 1640 L 1774 1640 L 1774 1660 L 1750 1660" stroke-miterlimit="10"></path></g><g transform="translate(-22,10) scale(1,1)"><path fill="#000000" stroke="none" d="M 1760.162674857624 1655.7904822439841 L 1750 1660 L 1760.162674857624 1664.2095177560159"></path></g><g transform="translate(-22,10) scale(1,1)"><path fill="none" stroke="#000000" d="M 1760.162674857624 1655.7904822439841 L 1750 1660 L 1760.162674857624 1664.2095177560159 L 1760.162674857624 1655.7904822439841" stroke-miterlimit="10"></path></g><g transform="translate(-22,10) scale(1,1)"><g><path fill="none" stroke="none"></path><text fill="#000000" stroke="none" font-family="Arial" font-size="13px" font-style="normal" font-weight="normal" text-decoration="none" x="1751.5" y="1655.5">35 : attach</text></g></g><g transform="translate(-22,10) scale(1,1)"><rect fill="#ffffff" stroke="none" x="1737" y="1660" width="13" height="28"></rect></g><g transform="translate(-22,10) scale(1,1)"><path fill="none" stroke="#000000" d="M 1737 1660 L 1750 1660 L 1750 1688 L 1737 1688 L 1737 1660 Z Z" stroke-miterlimit="10"></path></g><g transform="translate(-22,10) scale(1,1)"><path fill="none" stroke="#000000" d="M 1744 1696 L 339 1696" stroke-miterlimit="10"></path></g><g transform="translate(-22,10) scale(1,1)"><path fill="#000000" stroke="none" d="M 349.16267485762415 1691.7904822439841 L 339 1696 L 349.16267485762415 1700.2095177560159"></path></g><g transform="translate(-22,10) scale(1,1)"><path fill="none" stroke="#000000" d="M 349.16267485762415 1691.7904822439841 L 339 1696 L 349.16267485762415 1700.2095177560159 L 349.16267485762415 1691.7904822439841" stroke-miterlimit="10"></path></g><g transform="translate(-22,10) scale(1,1)"><g><path fill="none" stroke="none"></path><text fill="#000000" stroke="none" font-family="Arial" font-size="13px" font-style="normal" font-weight="normal" text-decoration="none" x="976.5" y="1712.5">36 : attachApplication</text></g></g><g transform="translate(-22,10) scale(1,1)"><rect fill="#ffffff" stroke="none" x="326" y="1696" width="13" height="28"></rect></g><g transform="translate(-22,10) scale(1,1)"><path fill="none" stroke="#000000" d="M 326 1696 L 339 1696 L 339 1724 L 326 1724 L 326 1696 Z Z" stroke-miterlimit="10"></path></g><g transform="translate(-22,10) scale(1,1)"><path fill="none" stroke="#000000" d="M 333 1736 L 363 1736 L 363 1756 L 339 1756" stroke-miterlimit="10"></path></g><g transform="translate(-22,10) scale(1,1)"><path fill="#000000" stroke="none" d="M 349.16267485762415 1751.7904822439841 L 339 1756 L 349.16267485762415 1760.2095177560159"></path></g><g transform="translate(-22,10) scale(1,1)"><path fill="none" stroke="#000000" d="M 349.16267485762415 1751.7904822439841 L 339 1756 L 349.16267485762415 1760.2095177560159 L 349.16267485762415 1751.7904822439841" stroke-miterlimit="10"></path></g><g transform="translate(-22,10) scale(1,1)"><g><path fill="none" stroke="none"></path><text fill="#000000" stroke="none" font-family="Arial" font-size="13px" font-style="normal" font-weight="normal" text-decoration="none" x="287.5" y="1751.5">37 : attachApplicationLocked</text></g></g><g transform="translate(-22,10) scale(1,1)"><rect fill="#ffffff" stroke="none" x="326" y="1756" width="13" height="28"></rect></g><g transform="translate(-22,10) scale(1,1)"><path fill="none" stroke="#000000" d="M 326 1756 L 339 1756 L 339 1784 L 326 1784 L 326 1756 Z Z" stroke-miterlimit="10"></path></g><g transform="translate(-22,10) scale(1,1)"><path fill="none" stroke="#000000" d="M 333 1792 L 1737 1792" stroke-miterlimit="10"></path></g><g transform="translate(-22,10) scale(1,1)"><path fill="#000000" stroke="none" d="M 1726.837325142376 1796.2095177560159 L 1737 1792 L 1726.837325142376 1787.7904822439841"></path></g><g transform="translate(-22,10) scale(1,1)"><path fill="none" stroke="#000000" d="M 1726.837325142376 1796.2095177560159 L 1737 1792 L 1726.837325142376 1787.7904822439841 L 1726.837325142376 1796.2095177560159" stroke-miterlimit="10"></path></g><g transform="translate(-22,10) scale(1,1)"><g><path fill="none" stroke="none"></path><text fill="#000000" stroke="none" font-family="Arial" font-size="13px" font-style="normal" font-weight="normal" text-decoration="none" x="977.5" y="1788.5">38 : bindApplication</text></g></g><g transform="translate(-22,10) scale(1,1)"><rect fill="#ffffff" stroke="none" x="1737" y="1792" width="13" height="28"></rect></g><g transform="translate(-22,10) scale(1,1)"><path fill="none" stroke="#000000" d="M 1737 1792 L 1750 1792 L 1750 1820 L 1737 1820 L 1737 1792 Z Z" stroke-miterlimit="10"></path></g><g transform="translate(-22,10) scale(1,1)"><path fill="none" stroke="#000000" d="M 333 1816 L 878 1816" stroke-miterlimit="10"></path></g><g transform="translate(-22,10) scale(1,1)"><path fill="#000000" stroke="none" d="M 867.8373251423759 1820.2095177560159 L 878 1816 L 867.8373251423758 1811.7904822439841"></path></g><g transform="translate(-22,10) scale(1,1)"><path fill="none" stroke="#000000" d="M 867.8373251423759 1820.2095177560159 L 878 1816 L 867.8373251423758 1811.7904822439841 L 867.8373251423759 1820.2095177560159" stroke-miterlimit="10"></path></g><g transform="translate(-22,10) scale(1,1)"><g><path fill="none" stroke="none"></path><text fill="#000000" stroke="none" font-family="Arial" font-size="13px" font-style="normal" font-weight="normal" text-decoration="none" x="520.5" y="1812.5">39 : attachApplicationLocked</text></g></g><g transform="translate(-22,10) scale(1,1)"><rect fill="#ffffff" stroke="none" x="878" y="1816" width="13" height="28"></rect></g><g transform="translate(-22,10) scale(1,1)"><path fill="none" stroke="#000000" d="M 878 1816 L 891 1816 L 891 1844 L 878 1844 L 878 1816 Z Z" stroke-miterlimit="10"></path></g><g transform="translate(-22,10) scale(1,1)"><path fill="none" stroke="#000000" d="M 885 1848 L 915 1848 L 915 1868 L 891 1868" stroke-miterlimit="10"></path></g><g transform="translate(-22,10) scale(1,1)"><path fill="#000000" stroke="none" d="M 901.1626748576241 1863.7904822439841 L 891 1868 L 901.1626748576241 1872.2095177560159"></path></g><g transform="translate(-22,10) scale(1,1)"><path fill="none" stroke="#000000" d="M 901.1626748576241 1863.7904822439841 L 891 1868 L 901.1626748576241 1872.2095177560159 L 901.1626748576241 1863.7904822439841" stroke-miterlimit="10"></path></g><g transform="translate(-22,10) scale(1,1)"><g><path fill="none" stroke="none"></path><text fill="#000000" stroke="none" font-family="Arial" font-size="13px" font-style="normal" font-weight="normal" text-decoration="none" x="844.5" y="1863.5">40 : realStartActivityLocked</text></g></g><g transform="translate(-22,10) scale(1,1)"><rect fill="#ffffff" stroke="none" x="878" y="1868" width="13" height="28"></rect></g><g transform="translate(-22,10) scale(1,1)"><path fill="none" stroke="#000000" d="M 878 1868 L 891 1868 L 891 1896 L 878 1896 L 878 1868 Z Z" stroke-miterlimit="10"></path></g><g transform="translate(-22,10) scale(1,1)"><path fill="none" stroke="#000000" d="M 885 1904 L 1866 1904" stroke-miterlimit="10"></path></g><g transform="translate(-22,10) scale(1,1)"><path fill="#000000" stroke="none" d="M 1855.837325142376 1908.2095177560159 L 1866 1904 L 1855.837325142376 1899.7904822439841"></path></g><g transform="translate(-22,10) scale(1,1)"><path fill="none" stroke="#000000" d="M 1855.837325142376 1908.2095177560159 L 1866 1904 L 1855.837325142376 1899.7904822439841 L 1855.837325142376 1908.2095177560159" stroke-miterlimit="10"></path></g><g transform="translate(-22,10) scale(1,1)"><g><path fill="none" stroke="none"></path><text fill="#000000" stroke="none" font-family="Arial" font-size="13px" font-style="normal" font-weight="normal" text-decoration="none" x="1338.5" y="1900.5">41 : execute</text></g></g><g transform="translate(-22,10) scale(1,1)"><rect fill="#ffffff" stroke="none" x="1866" y="1904" width="13" height="28"></rect></g><g transform="translate(-22,10) scale(1,1)"><path fill="none" stroke="#000000" d="M 1866 1904 L 1879 1904 L 1879 1932 L 1866 1932 L 1866 1904 Z Z" stroke-miterlimit="10"></path></g><g transform="translate(-22,10) scale(1,1)"><path fill="none" stroke="#000000" d="M 1873 1936 L 1750 1936" stroke-miterlimit="10"></path></g><g transform="translate(-22,10) scale(1,1)"><path fill="#000000" stroke="none" d="M 1760.162674857624 1931.7904822439841 L 1750 1936 L 1760.162674857624 1940.2095177560159"></path></g><g transform="translate(-22,10) scale(1,1)"><path fill="none" stroke="#000000" d="M 1760.162674857624 1931.7904822439841 L 1750 1936 L 1760.162674857624 1940.2095177560159 L 1760.162674857624 1931.7904822439841" stroke-miterlimit="10"></path></g><g transform="translate(-22,10) scale(1,1)"><g><path fill="none" stroke="none"></path><text fill="#000000" stroke="none" font-family="Arial" font-size="13px" font-style="normal" font-weight="normal" text-decoration="none" x="1735.5" y="1952.5">42 : handleLaunchActivity</text></g></g><g transform="translate(-22,10) scale(1,1)"><rect fill="#ffffff" stroke="none" x="1737" y="1936" width="13" height="28"></rect></g><g transform="translate(-22,10) scale(1,1)"><path fill="none" stroke="#000000" d="M 1737 1936 L 1750 1936 L 1750 1964 L 1737 1964 L 1737 1936 Z Z" stroke-miterlimit="10"></path></g><g transform="translate(-22,10) scale(1,1)"><path fill="none" stroke="#000000" d="M 1744 1976 L 1774 1976 L 1774 1996 L 1750 1996" stroke-miterlimit="10"></path></g><g transform="translate(-22,10) scale(1,1)"><path fill="#000000" stroke="none" d="M 1760.162674857624 1991.7904822439841 L 1750 1996 L 1760.162674857624 2000.2095177560159"></path></g><g transform="translate(-22,10) scale(1,1)"><path fill="none" stroke="#000000" d="M 1760.162674857624 1991.7904822439841 L 1750 1996 L 1760.162674857624 2000.2095177560159 L 1760.162674857624 1991.7904822439841" stroke-miterlimit="10"></path></g><g transform="translate(-22,10) scale(1,1)"><g><path fill="none" stroke="none"></path><text fill="#000000" stroke="none" font-family="Arial" font-size="13px" font-style="normal" font-weight="normal" text-decoration="none" x="1706.5" y="1991.5">43 : performLaunchActivity</text></g></g><g transform="translate(-22,10) scale(1,1)"><rect fill="#ffffff" stroke="none" x="1737" y="1996" width="13" height="28"></rect></g><g transform="translate(-22,10) scale(1,1)"><path fill="none" stroke="#000000" d="M 1737 1996 L 1750 1996 L 1750 2024 L 1737 2024 L 1737 1996 Z Z" stroke-miterlimit="10"></path></g><g transform="translate(-22,10) scale(1,1)"><path fill="none" stroke="#000000" d="M 1744 2032 L 186 2032" stroke-miterlimit="10"></path></g><g transform="translate(-22,10) scale(1,1)"><path fill="#000000" stroke="none" d="M 196.16267485762415 2027.7904822439841 L 186 2032 L 196.16267485762415 2036.2095177560159"></path></g><g transform="translate(-22,10) scale(1,1)"><path fill="none" stroke="#000000" d="M 196.16267485762415 2027.7904822439841 L 186 2032 L 196.16267485762415 2036.2095177560159 L 196.16267485762415 2027.7904822439841" stroke-miterlimit="10"></path></g><g transform="translate(-22,10) scale(1,1)"><g><path fill="none" stroke="none"></path><text fill="#000000" stroke="none" font-family="Arial" font-size="13px" font-style="normal" font-weight="normal" text-decoration="none" x="892.5" y="2048.5">44 : callActivityOnCreate</text></g></g><g transform="translate(-22,10) scale(1,1)"><rect fill="#ffffff" stroke="none" x="173" y="2032" width="13" height="28"></rect></g><g transform="translate(-22,10) scale(1,1)"><path fill="none" stroke="#000000" d="M 173 2032 L 186 2032 L 186 2060 L 173 2060 L 173 2032 Z Z" stroke-miterlimit="10"></path></g><g transform="translate(-22,10) scale(1,1)"><path fill="none" stroke="#000000" d="M 180 2072 L 84 2072" stroke-miterlimit="10"></path></g><g transform="translate(-22,10) scale(1,1)"><path fill="#000000" stroke="none" d="M 94.16267485762415 2067.790482243984 L 84 2072 L 94.16267485762415 2076.209517756016"></path></g><g transform="translate(-22,10) scale(1,1)"><path fill="none" stroke="#000000" d="M 94.16267485762415 2067.790482243984 L 84 2072 L 94.16267485762415 2076.209517756016 L 94.16267485762415 2067.790482243984" stroke-miterlimit="10"></path></g><g transform="translate(-22,10) scale(1,1)"><g><path fill="none" stroke="none"></path><text fill="#000000" stroke="none" font-family="Arial" font-size="13px" font-style="normal" font-weight="normal" text-decoration="none" x="75.5" y="2088.5">45 : .performCreate</text></g></g><g transform="translate(-22,10) scale(1,1)"><rect fill="#ffffff" stroke="none" x="71" y="2072" width="13" height="28"></rect></g><g transform="translate(-22,10) scale(1,1)"><path fill="none" stroke="#000000" d="M 71 2072 L 84 2072 L 84 2100 L 71 2100 L 71 2072 Z Z" stroke-miterlimit="10"></path></g><g transform="translate(-22,10) scale(1,1)"><path fill="none" stroke="#000000" d="M 78 2112 L 108 2112 L 108 2132 L 84 2132" stroke-miterlimit="10"></path></g><g transform="translate(-22,10) scale(1,1)"><path fill="#000000" stroke="none" d="M 94.16267485762415 2127.790482243984 L 84 2132 L 94.16267485762415 2136.209517756016"></path></g><g transform="translate(-22,10) scale(1,1)"><path fill="none" stroke="#000000" d="M 94.16267485762415 2127.790482243984 L 84 2132 L 94.16267485762415 2136.209517756016 L 94.16267485762415 2127.790482243984" stroke-miterlimit="10"></path></g><g transform="translate(-22,10) scale(1,1)"><g><path fill="none" stroke="none"></path><text fill="#000000" stroke="none" font-family="Arial" font-size="13px" font-style="normal" font-weight="normal" text-decoration="none" x="77.5" y="2127.5">46 : onCreate</text></g></g><g transform="translate(-22,10) scale(1,1)"><rect fill="#ffffff" stroke="none" x="71" y="2132" width="13" height="28"></rect></g><g transform="translate(-22,10) scale(1,1)"><path fill="none" stroke="#000000" d="M 71 2132 L 84 2132 L 84 2160 L 71 2160 L 71 2132 Z Z" stroke-miterlimit="10"></path></g></g></svg>